<svg width="31" height="33" viewBox="0 0 31 33" fill="none" xmlns="http://www.w3.org/2000/svg">
<g clip-path="url(#clip0_1_18626)" filter="url(#filter0_d_1_18626)">
<path d="M20.1864 0C18.8536 0.092187 17.2958 0.945307 16.388 2.05624C15.5599 3.06404 14.8786 4.56091 15.1443 6.01559C16.6005 6.0609 18.1052 5.18747 18.977 4.05779C19.7927 3.00623 20.4098 1.51874 20.1864 0Z" fill="black"/>
<path d="M25.4535 8.38746C24.1739 6.78278 22.3754 5.85153 20.677 5.85153C18.4348 5.85153 17.4864 6.92496 15.9286 6.92496C14.3224 6.92496 13.1021 5.85466 11.163 5.85466C9.25832 5.85466 7.23021 7.01871 5.94428 9.00933C4.13648 11.8124 4.44585 17.0827 7.37552 21.5718C8.42395 23.178 9.82395 24.9842 11.6552 24.9999C13.2849 25.0155 13.7442 23.9546 15.952 23.9436C18.1598 23.9311 18.5786 25.0139 20.2051 24.9967C22.0379 24.9827 23.5145 22.9811 24.5629 21.3749C25.3145 20.2233 25.5942 19.6436 26.177 18.3436C21.9379 16.7296 21.2583 10.7015 25.4535 8.38746Z" fill="black"/>
</g>
<defs>
<filter id="filter0_d_1_18626" x="-1" y="0" width="33" height="33" filterUnits="userSpaceOnUse" color-interpolation-filters="sRGB">
<feFlood flood-opacity="0" result="BackgroundImageFix"/>
<feColorMatrix in="SourceAlpha" type="matrix" values="0 0 0 0 0 0 0 0 0 0 0 0 0 0 0 0 0 0 127 0" result="hardAlpha"/>
<feOffset dy="4"/>
<feGaussianBlur stdDeviation="2"/>
<feComposite in2="hardAlpha" operator="out"/>
<feColorMatrix type="matrix" values="0 0 0 0 0 0 0 0 0 0 0 0 0 0 0 0 0 0 0.25 0"/>
<feBlend mode="normal" in2="BackgroundImageFix" result="effect1_dropShadow_1_18626"/>
<feBlend mode="normal" in="SourceGraphic" in2="effect1_dropShadow_1_18626" result="shape"/>
</filter>
<clipPath id="clip0_1_18626">
<rect width="25" height="25" fill="white" transform="translate(3)"/>
</clipPath>
</defs>
</svg>
